<svg width="806" height="15" viewBox="0 0 806 15" fill="none" xmlns="http://www.w3.org/2000/svg">
<path d="M1.5 1.49995C41.62 1.49995 41.62 13.5 81.74 13.5C121.86 13.5 121.86 1.49995 161.98 1.49995C202.1 1.49995 202.1 13.5 242.22 13.5C282.34 13.5 282.34 1.49995 322.47 1.49995C362.6 1.49995 362.59 13.5 402.71 13.5C442.83 13.5 442.83 1.49995 482.95 1.49995C523.07 1.49995 523.08 13.5 563.2 13.5C603.32 13.5 603.32 1.49995 643.44 1.49995C683.56 1.49995 683.57 13.5 723.69 13.5C763.81 13.5 763.82 1.49995 803.94 1.49995" stroke="#A6D99F" stroke-width="3" stroke-miterlimit="10" stroke-linecap="round"/>
</svg>
