<?xml version="1.0" encoding="iso-8859-1"?>
<!-- Generator: Adobe Illustrator 25.0.1, SVG Export Plug-In . SVG Version: 6.00 Build 0)  -->
<svg version="1.1" id="&#x5716;&#x5C64;_1" xmlns="http://www.w3.org/2000/svg" xmlns:xlink="http://www.w3.org/1999/xlink" x="0px"
	 y="0px" viewBox="0 0 185.285 37.173" style="enable-background:new 0 0 185.285 37.173;" xml:space="preserve">
<g style="display:none;">
	<path style="display:inline;fill:#6083FF;" d="M-184.262-110.424h-53.571v0c0-29.587,23.985-53.571,53.571-53.571h0V-110.424z"/>
	<path style="display:inline;fill:#6083FF;" d="M-82.322-68.981h-33.904c-2.236,0-4.048-1.812-4.048-4.048v-33.904
		c0-2.236,1.812-4.048,4.048-4.048h33.904c2.236,0,4.048,1.812,4.048,4.048v33.904C-78.274-70.794-80.087-68.981-82.322-68.981z"/>
	<g style="display:inline;">
		<polygon style="fill:#2D428A;" points="-60.532,-169.398 -61.016,-169.527 -55.846,-188.82 -55.362,-188.691 		"/>
		
			<rect x="-65.767" y="-178.361" transform="matrix(0.5003 -0.8659 0.8659 0.5003 126.3458 -137.3059)" style="fill:#2D428A;" width="19.974" height="0.5"/>
		
			<rect x="-63.699" y="-176.774" transform="matrix(0.7071 -0.7071 0.7071 0.7071 109.0896 -89.683)" style="fill:#2D428A;" width="19.974" height="0.5"/>
		
			<rect x="-62.112" y="-174.706" transform="matrix(0.8663 -0.4995 0.4995 0.8663 80.1712 -49.3576)" style="fill:#2D428A;" width="19.974" height="0.501"/>
		
			<rect x="-61.114" y="-172.297" transform="matrix(0.9656 -0.26 0.26 0.9656 42.9766 -19.2117)" style="fill:#2D428A;" width="19.974" height="0.499"/>
		<rect x="-60.774" y="-169.712" style="fill:#2D428A;" width="19.974" height="0.5"/>
		<rect x="-61.024" y="-189.436" style="fill:#2D428A;" width="0.5" height="19.974"/>
		<polygon style="fill:#2D428A;" points="-61.016,-169.398 -66.185,-188.691 -65.702,-188.82 -60.532,-169.527 		"/>
		
			<rect x="-66.017" y="-188.098" transform="matrix(0.866 -0.5 0.5 0.866 80.2439 -56.7456)" style="fill:#2D428A;" width="0.5" height="19.974"/>
		
			<rect x="-68.086" y="-186.511" transform="matrix(0.7071 -0.7071 0.7071 0.7071 104.9512 -99.6663)" style="fill:#2D428A;" width="0.5" height="19.974"/>
		
			<rect x="-69.673" y="-184.443" transform="matrix(0.5 -0.866 0.866 0.5 116.3714 -147.3472)" style="fill:#2D428A;" width="0.501" height="19.974"/>
		<polygon style="fill:#2D428A;" points="-60.839,-169.221 -80.132,-174.391 -80.002,-174.873 -60.709,-169.703 		"/>
		<rect x="-80.748" y="-169.712" style="fill:#2D428A;" width="19.974" height="0.5"/>
	</g>
	<polygon style="display:inline;fill:#6083FF;" points="36.468,-119.398 35.984,-119.527 41.154,-138.82 41.638,-138.691 	"/>
	
		<rect x="31.233" y="-128.361" transform="matrix(0.5003 -0.8659 0.8659 0.5003 131.5262 -28.3302)" style="display:inline;fill:#6083FF;" width="19.974" height="0.5"/>
	
		<rect x="33.301" y="-126.774" transform="matrix(0.7071 -0.7071 0.7071 0.7071 102.145 -6.449)" style="display:inline;fill:#6083FF;" width="19.974" height="0.5"/>
	
		<rect x="34.888" y="-124.706" transform="matrix(0.8663 -0.4995 0.4995 0.8663 68.1637 5.7772)" style="display:inline;fill:#6083FF;" width="19.974" height="0.501"/>
	
		<rect x="35.886" y="-122.297" transform="matrix(0.9656 -0.26 0.26 0.9656 33.3122 7.7297)" style="display:inline;fill:#6083FF;" width="19.974" height="0.499"/>
	<rect x="35.976" y="-139.436" style="display:inline;fill:#6083FF;" width="0.5" height="19.974"/>
	<polygon style="display:inline;fill:#6083FF;" points="35.984,-119.398 30.815,-138.691 31.298,-138.82 36.468,-119.527 	"/>
	
		<rect x="30.983" y="-138.098" transform="matrix(0.866 -0.5 0.5 0.866 68.2395 -1.5473)" style="display:inline;fill:#6083FF;" width="0.5" height="19.974"/>
	
		<rect x="28.914" y="-136.511" transform="matrix(0.7071 -0.7071 0.7071 0.7071 98.0059 -16.4345)" style="display:inline;fill:#6083FF;" width="0.5" height="19.974"/>
	
		<rect x="27.327" y="-134.443" transform="matrix(0.5 -0.866 0.866 0.5 121.5692 -38.3442)" style="display:inline;fill:#6083FF;" width="0.501" height="19.974"/>
	<polygon style="display:inline;fill:#6083FF;" points="36.161,-119.221 16.868,-124.391 16.998,-124.873 36.291,-119.703 	"/>
	<ellipse style="display:inline;fill:#FFFAFD;" cx="-60.774" cy="-169.462" rx="14.345" ry="9.468"/>
	<path style="display:inline;fill:#2D428A;" d="M-60.774-159.744c-6.353,0-12.074-3.775-14.575-9.619l-0.042-0.099l0.042-0.099
		c2.501-5.844,8.222-9.62,14.575-9.62c6.353,0,12.074,3.776,14.574,9.62l0.042,0.099l-0.042,0.099
		C-48.7-163.52-54.421-159.744-60.774-159.744z M-74.846-169.462c2.444,5.604,7.956,9.218,14.072,9.218
		c6.117,0,11.629-3.614,14.072-9.218c-2.443-5.604-7.956-9.219-14.072-9.219C-66.89-178.681-72.403-175.066-74.846-169.462z"/>
	<circle style="display:inline;fill:#FFC659;" cx="-60.774" cy="-169.462" r="6.901"/>
	<circle style="display:inline;fill:#2D428A;" cx="-60.774" cy="-169.462" r="2.585"/>
	<g style="display:inline;">
		<ellipse style="fill:#FFFAFD;" cx="-99.274" cy="-89.981" rx="14.345" ry="9.468"/>
		<path style="fill:#2D428A;" d="M-99.274-80.263c-6.353,0-12.074-3.775-14.575-9.619l-0.042-0.099l0.042-0.099
			c2.501-5.844,8.222-9.62,14.575-9.62c6.353,0,12.074,3.776,14.574,9.62l0.042,0.099l-0.042,0.099
			C-87.2-84.039-92.921-80.263-99.274-80.263z M-113.346-89.981c2.444,5.604,7.956,9.218,14.072,9.218
			c6.117,0,11.629-3.614,14.072-9.218c-2.443-5.604-7.956-9.219-14.072-9.219C-105.39-99.2-110.902-95.584-113.346-89.981z"/>
		<circle style="fill:#FFC659;" cx="-99.274" cy="-89.981" r="6.901"/>
		<circle style="fill:#2D428A;" cx="-99.274" cy="-89.981" r="2.585"/>
	</g>
	<g style="display:inline;">
		<path style="fill:#2D428A;" d="M-154-225.048c29.25,0,53.048,23.797,53.048,53.047h0.524c0-29.54-24.032-53.571-53.571-53.571
			c0,0,0,0,0,0L-154-225.048C-154-225.048-154-225.048-154-225.048z"/>
		<path style="fill:#2D428A;" d="M-154-219.441c26.159,0,47.441,21.282,47.441,47.441h0.524c0-26.448-21.517-47.965-47.965-47.965
			c0,0,0,0,0,0L-154-219.441C-154-219.441-154-219.441-154-219.441z"/>
		<path style="fill:#2D428A;" d="M-154-213.835c23.068,0,41.835,18.767,41.835,41.835h0.524c0-23.357-19.002-42.358-42.358-42.358
			c0,0,0,0,0,0L-154-213.835C-154-213.835-154-213.835-154-213.835z"/>
		<path style="fill:#2D428A;" d="M-154-208.228c19.977,0,36.228,16.252,36.228,36.228h0.524c0-20.265-16.487-36.752-36.752-36.752
			c0,0,0,0,0,0L-154-208.228C-154-208.228-154-208.228-154-208.228z"/>
		<path style="fill:#2D428A;" d="M-154-202.622c16.885,0,30.622,13.737,30.622,30.622h0.524c0-17.174-13.972-31.146-31.145-31.146
			c0,0,0,0,0,0L-154-202.622C-154-202.622-154-202.622-154-202.622z"/>
		<path style="fill:#2D428A;" d="M-154-197.016c13.794,0,25.015,11.222,25.015,25.016h0.524c0-14.083-11.457-25.539-25.539-25.539
			c0,0,0,0,0,0L-154-197.016C-154-197.016-154-197.016-154-197.016z"/>
		<path style="fill:#2D428A;" d="M-154-191.409c10.702,0,19.409,8.707,19.409,19.409h0.524c0-10.991-8.942-19.933-19.932-19.933
			c0,0,0,0,0,0L-154-191.409C-154-191.409-154-191.409-154-191.409z"/>
		<path style="fill:#2D428A;" d="M-154-185.803c7.611,0,13.802,6.192,13.802,13.803h0.524c0-7.9-6.427-14.327-14.326-14.326
			c0,0,0,0,0,0L-154-185.803C-154-185.803-154-185.803-154-185.803z"/>
		<path style="fill:#2D428A;" d="M-154-180.196c4.519,0,8.196,3.677,8.196,8.196h0.524c0-4.808-3.912-8.72-8.72-8.72c0,0,0,0,0,0
			L-154-180.196C-154-180.196-154-180.196-154-180.196z"/>
		<path style="fill:#2D428A;" d="M-154-174.83c1.56,0,2.83,1.269,2.83,2.83h0.524c0-1.849-1.504-3.354-3.354-3.354c0,0,0,0,0,0
			L-154-174.83C-154-174.83-154-174.83-154-174.83z"/>
	</g>
	<path style="display:inline;fill:#6083FF;" d="M-35.5-69.741h-8.503c-1.103,0-1.997-0.894-1.997-1.997v-33.006
		c0-1.103,0.894-1.997,1.997-1.997h8.503c10.217,0,18.5,8.283,18.5,18.5v0C-17-78.023-25.283-69.741-35.5-69.741z"/>
	<g style="display:inline;">
		<ellipse style="fill:#FFFFFF;" cx="-31.274" cy="-88.241" rx="11.065" ry="7.303"/>
		<circle style="fill:#FFC659;" cx="-31.274" cy="-88.241" r="5.323"/>
		<circle style="fill:#6083FF;" cx="-31.274" cy="-88.241" r="1.994"/>
	</g>
	<g style="display:inline;">
		<path style="fill:#6083FF;" d="M66.102-85.544l5.097,6.292c0.987,1.04,1.768,2.08,1.768,3.952c0,2.132-1.508,3.848-3.744,3.848
			c-1.508-0.052-2.6-0.728-3.848-2.236l-8.685-11.544v8.788c0,3.536-1.768,4.992-4.108,4.992c-2.444,0-4.108-1.456-4.108-4.992
			v-27.665c0-2.86,1.457-3.432,3.953-3.432h7.124c8.528,0,13.468,4.368,13.468,11.285c0,2.912-0.728,5.304-2.184,7.228
			C69.43-87.156,67.818-86.012,66.102-85.544z M51.541-103.796c0,0.572,0.469,0.988,1.04,0.988c0.572,0,0.937-0.416,0.937-0.988
			c0-0.624-0.364-0.988-0.937-0.988C52.01-104.784,51.541-104.42,51.541-103.796z M51.541-100c0,0.572,0.469,1.04,1.04,1.04
			c0.572,0,0.937-0.468,0.937-1.04c0-0.572-0.364-0.937-0.937-0.937C52.01-100.937,51.541-100.572,51.541-100z M51.541-95.996
			c0,0.468,0.469,0.988,1.04,0.988c0.572,0,0.937-0.521,0.937-0.988c0-0.572-0.364-0.988-0.937-0.988
			C52.01-96.984,51.541-96.568,51.541-95.996z M51.541-91.992c0,0.572,0.469,0.988,1.04,0.988c0.572,0,0.937-0.416,0.937-0.988
			c0-0.572-0.364-0.988-0.937-0.988C52.01-92.98,51.541-92.564,51.541-91.992z M51.541-87.988c0,0.468,0.469,0.936,1.04,0.936
			c0.572,0,0.937-0.468,0.937-0.936c0-0.624-0.364-1.04-0.937-1.04C52.01-89.028,51.541-88.612,51.541-87.988z M51.541-83.88
			c0,0.572,0.469,0.937,1.04,0.937c0.572,0,0.937-0.364,0.937-0.937c0-0.624-0.364-1.04-0.937-1.04
			C52.01-84.92,51.541-84.504,51.541-83.88z M51.541-79.875c0,0.572,0.469,0.988,1.04,0.988c0.572,0,0.937-0.416,0.937-0.988
			c0-0.624-0.364-1.04-0.937-1.04C52.01-80.916,51.541-80.5,51.541-79.875z M51.541-75.819c0,0.572,0.469,1.04,1.04,1.04
			c0.572,0,0.937-0.468,0.937-1.04c0-0.624-0.364-0.988-0.937-0.988C52.01-76.808,51.541-76.443,51.541-75.819z M55.493-103.9
			c0,0.572,0.468,1.04,1.04,1.04c0.624,0,0.937-0.468,0.937-1.04s-0.312-0.988-0.937-0.988
			C55.961-104.889,55.493-104.473,55.493-103.9z M55.493-88.04c0,0.468,0.468,0.937,1.04,0.937c0.624,0,0.937-0.468,0.937-0.937
			c0-0.624-0.312-1.04-0.937-1.04C55.961-89.08,55.493-88.664,55.493-88.04z M56.689-91.732h2.809c3.275,0,5.199-1.456,5.199-3.952
			c0-2.756-1.871-4.316-5.147-4.316h-2.86V-91.732z M59.342-88.04c0,0.468,0.416,0.937,0.988,0.937c0.623,0,0.987-0.468,0.987-0.937
			c0-0.624-0.364-1.04-0.987-1.04C59.758-89.08,59.342-88.664,59.342-88.04z M59.498-103.849c0,0.572,0.416,0.988,0.987,0.988
			c0.624,0,0.988-0.416,0.988-0.988c0-0.572-0.364-0.988-0.988-0.988C59.914-104.836,59.498-104.42,59.498-103.849z M60.901-84.348
			c0,0.572,0.468,0.988,0.937,0.988c0.624,0,1.04-0.416,1.04-0.988c0-0.624-0.416-0.988-1.04-0.988
			C61.369-85.336,60.901-84.972,60.901-84.348z M63.138-88.976c0,0.572,0.468,1.04,0.937,1.04c0.623,0,1.039-0.468,1.039-1.04
			c0-0.624-0.416-0.937-1.039-0.937C63.605-89.912,63.138-89.6,63.138-88.976z M63.397-103.068c0,0.468,0.364,0.936,0.937,0.936
			c0.624,0,1.04-0.468,1.04-0.936c0-0.624-0.416-1.04-1.04-1.04C63.762-104.108,63.397-103.692,63.397-103.068z M63.449-81.332
			c0,0.468,0.364,0.936,0.937,0.936c0.624,0,1.04-0.468,1.04-0.936c0-0.624-0.416-1.04-1.04-1.04
			C63.813-82.372,63.449-81.956,63.449-81.332z M65.738-78.367c0,0.572,0.416,1.04,0.987,1.04c0.624,0,0.988-0.468,0.988-1.04
			c0-0.624-0.364-0.937-0.988-0.937C66.154-79.304,65.738-78.991,65.738-78.367z M66.361-90.848c0,0.572,0.469,0.988,1.041,0.988
			c0.571,0,0.936-0.416,0.936-0.988c0-0.624-0.364-0.988-0.936-0.988C66.83-91.836,66.361-91.472,66.361-90.848z M66.466-100.988
			c0,0.468,0.468,0.988,1.04,0.988s0.936-0.521,0.936-0.988c0-0.624-0.363-1.04-0.936-1.04S66.466-101.612,66.466-100.988z
			 M68.13-97.868c0,0.572,0.416,1.04,0.988,1.04c0.624,0,0.987-0.468,0.987-1.04s-0.363-0.936-0.987-0.936
			C68.546-98.804,68.13-98.44,68.13-97.868z M68.13-75.403c0,0.572,0.416,0.936,0.988,0.936c0.624,0,0.987-0.364,0.987-0.936
			c0-0.624-0.363-1.04-0.987-1.04C68.546-76.443,68.13-76.027,68.13-75.403z M68.182-94.176c0,0.468,0.416,0.936,0.988,0.936
			c0.624,0,0.988-0.468,0.988-0.936c0-0.624-0.364-1.04-0.988-1.04C68.598-95.216,68.182-94.8,68.182-94.176z"/>
		<path style="fill:#6083FF;" d="M85.028-78.159l-1.144,3.536c-0.416,1.248-0.937,2.184-1.561,2.808
			c-0.676,0.676-1.456,0.988-2.34,0.988c-2.444,0-4.473-1.82-4.473-3.952c0-0.936,0.156-1.716,0.416-2.392l9.881-25.169
			c1.352-3.536,3.536-5.304,6.553-5.304c2.859,0,4.888,1.612,6.031,4.784l9.413,25.533c0.364,1.196,0.571,2.08,0.571,2.652
			c0,2.236-1.664,3.848-4.107,3.848c-2.028,0-3.484-1.352-4.316-4.004l-1.04-3.328H85.028z M80.349-74.623
			c0-0.468-0.416-0.988-0.988-0.988c-0.624,0-1.04,0.52-1.04,0.988c0,0.572,0.416,0.988,1.04,0.988
			C79.933-73.635,80.349-74.051,80.349-74.623z M81.597-78.211c0-0.572-0.468-0.936-1.04-0.936c-0.469,0-0.937,0.364-0.937,0.936
			c0,0.624,0.468,1.04,0.937,1.04C81.129-77.171,81.597-77.587,81.597-78.211z M82.896-81.748c0-0.572-0.364-1.04-0.936-1.04
			c-0.625,0-1.041,0.468-1.041,1.04c0,0.624,0.416,0.936,1.041,0.936C82.532-80.812,82.896-81.124,82.896-81.748z M84.509-85.284
			c0-0.468-0.468-0.988-1.04-0.988c-0.624,0-0.988,0.52-0.988,0.988c0,0.572,0.364,0.988,0.988,0.988
			C84.041-84.296,84.509-84.712,84.509-85.284z M85.86-88.924c0-0.572-0.468-0.936-1.04-0.936c-0.468,0-0.936,0.364-0.936,0.936
			c0,0.624,0.468,1.04,0.936,1.04C85.393-87.884,85.86-88.3,85.86-88.924z M86.9-81.748c0-0.572-0.363-1.04-0.936-1.04
			c-0.624,0-1.04,0.468-1.04,1.04c0,0.624,0.416,0.936,1.04,0.936C86.537-80.812,86.9-81.124,86.9-81.748z M87.108-92.512
			c0-0.572-0.364-1.04-0.936-1.04c-0.624,0-1.04,0.468-1.04,1.04c0,0.624,0.416,0.936,1.04,0.936
			C86.744-91.576,87.108-91.888,87.108-92.512z M88.617-96.152c0-0.468-0.469-0.988-1.041-0.988c-0.623,0-0.936,0.52-0.936,0.988
			c0,0.572,0.312,0.988,0.936,0.988C88.148-95.164,88.617-95.58,88.617-96.152z M92.152-97.608l-4.628,12.169h8.997L92.152-97.608z
			 M89.969-99.74c0-0.468-0.52-0.936-0.988-0.936c-0.572,0-0.988,0.468-0.988,0.936c0,0.624,0.416,1.04,0.988,1.04
			C89.449-98.7,89.969-99.116,89.969-99.74z M91.009-81.748c0-0.572-0.416-1.04-0.988-1.04c-0.624,0-0.987,0.468-0.987,1.04
			c0,0.624,0.363,0.936,0.987,0.936C90.593-80.812,91.009-81.124,91.009-81.748z M91.529-103.017c0-0.572-0.469-1.04-0.937-1.04
			c-0.624,0-1.04,0.468-1.04,1.04c0,0.572,0.416,0.937,1.04,0.937C91.061-102.08,91.529-102.444,91.529-103.017z M94.805-103.017
			c0-0.572-0.468-1.04-1.04-1.04c-0.571,0-0.936,0.468-0.936,1.04c0,0.572,0.364,0.937,0.936,0.937
			C94.337-102.08,94.805-102.444,94.805-103.017z M95.013-81.748c0-0.572-0.468-1.04-1.04-1.04c-0.624,0-0.988,0.468-0.988,1.04
			c0,0.624,0.364,0.936,0.988,0.936C94.545-80.812,95.013-81.124,95.013-81.748z M96.417-99.74c0-0.468-0.521-0.936-0.988-0.936
			c-0.571,0-0.987,0.468-0.987,0.936c0,0.624,0.416,1.04,0.987,1.04C95.896-98.7,96.417-99.116,96.417-99.74z M97.717-96.152
			c0-0.468-0.363-0.988-0.936-0.988c-0.624,0-1.04,0.52-1.04,0.988c0,0.572,0.416,0.988,1.04,0.988
			C97.354-95.164,97.717-95.58,97.717-96.152z M99.069-92.512c0-0.572-0.468-1.04-1.04-1.04s-0.937,0.468-0.937,1.04
			c0,0.624,0.364,0.936,0.937,0.936S99.069-91.888,99.069-92.512z M99.069-81.748c0-0.572-0.468-1.04-1.04-1.04
			s-0.937,0.468-0.937,1.04c0,0.624,0.364,0.936,0.937,0.936S99.069-81.124,99.069-81.748z M100.317-88.924
			c0-0.572-0.416-0.936-0.988-0.936s-0.988,0.364-0.988,0.936c0,0.624,0.416,1.04,0.988,1.04S100.317-88.3,100.317-88.924z
			 M101.565-85.284c0-0.468-0.416-0.988-0.988-0.988c-0.624,0-0.988,0.52-0.988,0.988c0,0.572,0.364,0.988,0.988,0.988
			C101.149-84.296,101.565-84.712,101.565-85.284z M102.917-81.748c0-0.572-0.52-1.04-0.987-1.04c-0.625,0-0.988,0.468-0.988,1.04
			c0,0.624,0.363,0.936,0.988,0.936C102.397-80.812,102.917-81.124,102.917-81.748z M104.165-78.264c0-0.572-0.52-0.936-0.987-0.936
			c-0.625,0-1.041,0.364-1.041,0.936c0,0.624,0.416,1.04,1.041,1.04C103.646-77.224,104.165-77.64,104.165-78.264z M105.518-74.623
			c0-0.468-0.469-0.988-1.04-0.988c-0.572,0-0.937,0.52-0.937,0.988c0,0.572,0.364,0.988,0.937,0.988
			C105.049-73.635,105.518-74.051,105.518-74.623z"/>
		<path style="fill:#6083FF;" d="M140.929-92.356l-7.384,12.636c-0.676,0.884-1.456,1.456-2.393,1.612
			c-0.26,0.052-0.52,0.052-0.779,0.052c-0.261,0-0.521,0-0.832-0.052c-0.885-0.156-1.664-0.728-2.289-1.612l-7.436-12.636
			l0.26,15.913c0,3.536-1.768,4.992-4.108,4.992c-2.444,0-4.108-1.456-4.108-4.992v-25.689c0-4.108,1.509-5.408,4.576-5.408
			c2.393,0,3.641,0.676,4.629,2.444l9.309,15.757l9.256-15.757c0.988-1.456,2.496-2.444,4.68-2.444c3.068,0,4.629,1.3,4.629,5.408
			v25.689c0,3.536-1.717,4.992-4.16,4.992c-2.34,0-4.108-1.456-4.108-4.992L140.929-92.356z M114.928-103.588
			c0,0.572,0.469,0.988,1.04,0.988c0.572,0,0.937-0.416,0.937-0.988c0-0.624-0.364-0.988-0.937-0.988
			C115.396-104.576,114.928-104.212,114.928-103.588z M114.928-99.636c0,0.572,0.469,1.04,1.04,1.04c0.572,0,0.937-0.468,0.937-1.04
			s-0.364-0.988-0.937-0.988C115.396-100.624,114.928-100.208,114.928-99.636z M114.928-95.684c0,0.572,0.469,1.04,1.04,1.04
			c0.572,0,0.937-0.468,0.937-1.04s-0.364-0.936-0.937-0.936C115.396-96.62,114.928-96.256,114.928-95.684z M114.928-91.68
			c0,0.468,0.469,0.988,1.04,0.988c0.572,0,0.937-0.52,0.937-0.988c0-0.572-0.364-0.988-0.937-0.988
			C115.396-92.668,114.928-92.252,114.928-91.68z M114.928-87.676c0,0.468,0.469,0.936,1.04,0.936c0.572,0,0.937-0.468,0.937-0.936
			c0-0.624-0.364-1.04-0.937-1.04C115.396-88.716,114.928-88.3,114.928-87.676z M114.928-83.724c0,0.468,0.469,0.936,1.04,0.936
			c0.572,0,0.937-0.468,0.937-0.936c0-0.624-0.364-1.04-0.937-1.04C115.396-84.764,114.928-84.348,114.928-83.724z M114.928-79.771
			c0,0.572,0.469,0.936,1.04,0.936c0.572,0,0.937-0.364,0.937-0.936c0-0.624-0.364-1.04-0.937-1.04
			C115.396-80.812,114.928-80.396,114.928-79.771z M114.928-75.819c0,0.572,0.469,1.04,1.04,1.04c0.572,0,0.937-0.468,0.937-1.04
			c0-0.624-0.364-0.988-0.937-0.988C115.396-76.808,114.928-76.443,114.928-75.819z M118.725-99.584c0,0.572,0.468,1.04,1.039,1.04
			c0.625,0,0.988-0.468,0.988-1.04c0-0.572-0.363-0.988-0.988-0.988C119.192-100.572,118.725-100.156,118.725-99.584z
			 M120.752-95.996c0,0.468,0.416,0.988,0.988,0.988c0.624,0,0.988-0.521,0.988-0.988c0-0.572-0.364-0.988-0.988-0.988
			C121.168-96.984,120.752-96.568,120.752-95.996z M122.885-92.512c0,0.572,0.416,0.936,0.987,0.936
			c0.624,0,0.988-0.364,0.988-0.936c0-0.624-0.364-1.04-0.988-1.04C123.301-93.552,122.885-93.136,122.885-92.512z M124.912-89.132
			c0,0.572,0.416,1.04,0.988,1.04c0.624,0,0.988-0.468,0.988-1.04s-0.364-0.936-0.988-0.936
			C125.328-90.068,124.912-89.704,124.912-89.132z M127.045-85.544c0,0.416,0.416,0.937,0.987,0.937
			c0.624,0,0.988-0.521,0.988-0.937c0-0.624-0.364-1.04-0.988-1.04C127.461-86.584,127.045-86.168,127.045-85.544z M129.332-82.268
			c0,0.572,0.416,1.04,0.988,1.04c0.624,0,0.988-0.468,0.988-1.04c0-0.624-0.364-0.988-0.988-0.988
			C129.748-83.256,129.332-82.892,129.332-82.268z M131.568-85.544c0,0.416,0.469,0.937,1.04,0.937c0.624,0,0.988-0.521,0.988-0.937
			c0-0.624-0.364-1.04-0.988-1.04C132.037-86.584,131.568-86.168,131.568-85.544z M133.648-89.132c0,0.572,0.416,1.04,0.988,1.04
			c0.624,0,0.988-0.468,0.988-1.04s-0.364-0.936-0.988-0.936C134.064-90.068,133.648-89.704,133.648-89.132z M135.885-92.512
			c0,0.572,0.416,0.936,0.988,0.936c0.624,0,0.988-0.364,0.988-0.936c0-0.624-0.364-1.04-0.988-1.04
			C136.301-93.552,135.885-93.136,135.885-92.512z M138.017-95.996c0,0.468,0.416,0.988,0.988,0.988
			c0.624,0,0.988-0.521,0.988-0.988c0-0.572-0.364-0.988-0.988-0.988C138.433-96.984,138.017-96.568,138.017-95.996z
			 M139.993-99.584c0,0.572,0.416,1.04,0.987,1.04c0.625,0,0.988-0.468,0.988-1.04c0-0.572-0.363-0.988-0.988-0.988
			C140.409-100.572,139.993-100.156,139.993-99.584z M143.789-103.588c0,0.572,0.52,0.988,0.988,0.988
			c0.624,0,1.04-0.416,1.04-0.988c0-0.624-0.416-0.988-1.04-0.988C144.309-104.576,143.789-104.212,143.789-103.588z
			 M143.789-99.636c0,0.572,0.52,1.04,0.988,1.04c0.624,0,1.04-0.468,1.04-1.04s-0.416-0.988-1.04-0.988
			C144.309-100.624,143.789-100.208,143.789-99.636z M143.789-95.684c0,0.572,0.52,1.04,0.988,1.04c0.624,0,1.04-0.468,1.04-1.04
			s-0.416-0.936-1.04-0.936C144.309-96.62,143.789-96.256,143.789-95.684z M143.789-91.68c0,0.468,0.52,0.988,0.988,0.988
			c0.624,0,1.04-0.52,1.04-0.988c0-0.572-0.416-0.988-1.04-0.988C144.309-92.668,143.789-92.252,143.789-91.68z M143.789-87.676
			c0,0.468,0.52,0.936,0.988,0.936c0.624,0,1.04-0.468,1.04-0.936c0-0.624-0.416-1.04-1.04-1.04
			C144.309-88.716,143.789-88.3,143.789-87.676z M143.789-83.724c0,0.468,0.52,0.936,0.988,0.936c0.624,0,1.04-0.468,1.04-0.936
			c0-0.624-0.416-1.04-1.04-1.04C144.309-84.764,143.789-84.348,143.789-83.724z M143.789-79.771c0,0.572,0.52,0.936,0.988,0.936
			c0.624,0,1.04-0.364,1.04-0.936c0-0.624-0.416-1.04-1.04-1.04C144.309-80.812,143.789-80.396,143.789-79.771z M143.789-75.819
			c0,0.572,0.52,1.04,0.988,1.04c0.624,0,1.04-0.468,1.04-1.04c0-0.624-0.416-0.988-1.04-0.988
			C144.309-76.808,143.789-76.443,143.789-75.819z"/>
		<path style="fill:#6083FF;" d="M161.936-78.159l-1.144,3.536c-0.416,1.248-0.937,2.184-1.561,2.808
			c-0.676,0.676-1.456,0.988-2.34,0.988c-2.444,0-4.472-1.82-4.472-3.952c0-0.936,0.155-1.716,0.416-2.392l9.88-25.169
			c1.353-3.536,3.536-5.304,6.552-5.304c2.86,0,4.889,1.612,6.033,4.784l9.412,25.533c0.363,1.196,0.572,2.08,0.572,2.652
			c0,2.236-1.664,3.848-4.108,3.848c-2.028,0-3.484-1.352-4.316-4.004l-1.04-3.328H161.936z M157.256-74.623
			c0-0.468-0.416-0.988-0.988-0.988c-0.624,0-1.04,0.52-1.04,0.988c0,0.572,0.416,0.988,1.04,0.988
			C156.84-73.635,157.256-74.051,157.256-74.623z M158.504-78.211c0-0.572-0.469-0.936-1.04-0.936c-0.468,0-0.937,0.364-0.937,0.936
			c0,0.624,0.469,1.04,0.937,1.04C158.035-77.171,158.504-77.587,158.504-78.211z M159.804-81.748c0-0.572-0.364-1.04-0.937-1.04
			c-0.623,0-1.039,0.468-1.039,1.04c0,0.624,0.416,0.936,1.039,0.936C159.439-80.812,159.804-81.124,159.804-81.748z
			 M161.416-85.284c0-0.468-0.469-0.988-1.04-0.988c-0.624,0-0.988,0.52-0.988,0.988c0,0.572,0.364,0.988,0.988,0.988
			C160.947-84.296,161.416-84.712,161.416-85.284z M162.768-88.924c0-0.572-0.468-0.936-1.04-0.936
			c-0.468,0-0.936,0.364-0.936,0.936c0,0.624,0.468,1.04,0.936,1.04C162.3-87.884,162.768-88.3,162.768-88.924z M163.808-81.748
			c0-0.572-0.364-1.04-0.936-1.04c-0.624,0-1.04,0.468-1.04,1.04c0,0.624,0.416,0.936,1.04,0.936
			C163.443-80.812,163.808-81.124,163.808-81.748z M164.016-92.512c0-0.572-0.363-1.04-0.936-1.04c-0.624,0-1.04,0.468-1.04,1.04
			c0,0.624,0.416,0.936,1.04,0.936C163.652-91.576,164.016-91.888,164.016-92.512z M165.523-96.152c0-0.468-0.468-0.988-1.039-0.988
			c-0.625,0-0.937,0.52-0.937,0.988c0,0.572,0.312,0.988,0.937,0.988C165.056-95.164,165.523-95.58,165.523-96.152z M169.061-97.608
			l-4.629,12.169h8.996L169.061-97.608z M166.876-99.74c0-0.468-0.521-0.936-0.988-0.936c-0.571,0-0.987,0.468-0.987,0.936
			c0,0.624,0.416,1.04,0.987,1.04C166.355-98.7,166.876-99.116,166.876-99.74z M167.916-81.748c0-0.572-0.416-1.04-0.988-1.04
			c-0.624,0-0.988,0.468-0.988,1.04c0,0.624,0.364,0.936,0.988,0.936C167.5-80.812,167.916-81.124,167.916-81.748z M168.436-103.017
			c0-0.572-0.468-1.04-0.936-1.04c-0.624,0-1.04,0.468-1.04,1.04c0,0.572,0.416,0.937,1.04,0.937
			C167.968-102.08,168.436-102.444,168.436-103.017z M171.712-103.017c0-0.572-0.468-1.04-1.04-1.04s-0.936,0.468-0.936,1.04
			c0,0.572,0.363,0.937,0.936,0.937S171.712-102.444,171.712-103.017z M171.92-81.748c0-0.572-0.468-1.04-1.04-1.04
			c-0.624,0-0.987,0.468-0.987,1.04c0,0.624,0.363,0.936,0.987,0.936C171.452-80.812,171.92-81.124,171.92-81.748z M173.324-99.74
			c0-0.468-0.52-0.936-0.988-0.936c-0.572,0-0.988,0.468-0.988,0.936c0,0.624,0.416,1.04,0.988,1.04
			C172.805-98.7,173.324-99.116,173.324-99.74z M174.624-96.152c0-0.468-0.364-0.988-0.936-0.988c-0.624,0-1.04,0.52-1.04,0.988
			c0,0.572,0.416,0.988,1.04,0.988C174.26-95.164,174.624-95.58,174.624-96.152z M175.977-92.512c0-0.572-0.469-1.04-1.04-1.04
			c-0.572,0-0.937,0.468-0.937,1.04c0,0.624,0.364,0.936,0.937,0.936C175.508-91.576,175.977-91.888,175.977-92.512z
			 M175.977-81.748c0-0.572-0.469-1.04-1.04-1.04c-0.572,0-0.937,0.468-0.937,1.04c0,0.624,0.364,0.936,0.937,0.936
			C175.508-80.812,175.977-81.124,175.977-81.748z M177.225-88.924c0-0.572-0.416-0.936-0.988-0.936s-0.988,0.364-0.988,0.936
			c0,0.624,0.416,1.04,0.988,1.04S177.225-88.3,177.225-88.924z M178.473-85.284c0-0.468-0.416-0.988-0.988-0.988
			c-0.624,0-0.988,0.52-0.988,0.988c0,0.572,0.364,0.988,0.988,0.988C178.057-84.296,178.473-84.712,178.473-85.284z
			 M179.824-81.748c0-0.572-0.52-1.04-0.988-1.04c-0.623,0-0.987,0.468-0.987,1.04c0,0.624,0.364,0.936,0.987,0.936
			C179.305-80.812,179.824-81.124,179.824-81.748z M181.072-78.264c0-0.572-0.52-0.936-0.988-0.936
			c-0.623,0-1.039,0.364-1.039,0.936c0,0.624,0.416,1.04,1.039,1.04C180.553-77.224,181.072-77.64,181.072-78.264z M182.425-74.623
			c0-0.468-0.468-0.988-1.04-0.988s-0.937,0.52-0.937,0.988c0,0.572,0.364,0.988,0.937,0.988S182.425-74.051,182.425-74.623z"/>
	</g>
	<g style="display:inline;">
		<path style="fill:#6083FF;" d="M-10.346-125.451c-2.496,0-3.953-0.572-3.953-3.432v-29.225c0-2.86,1.457-3.432,3.953-3.432h6.292
			c6.136,0,10.765,1.716,13.937,5.096s4.888,7.853,5.044,13.521c0.052,5.044-1.508,9.256-4.732,12.532
			c-3.172,3.276-8.216,4.94-15.08,4.94H-10.346z M-11.23-157.849c0,0.572,0.469,0.988,1.04,0.988c0.572,0,0.937-0.416,0.937-0.988
			c0-0.572-0.364-0.988-0.937-0.988C-10.762-158.836-11.23-158.42-11.23-157.849z M-11.23-154c0,0.572,0.469,1.04,1.04,1.04
			c0.572,0,0.937-0.468,0.937-1.04c0-0.572-0.364-0.937-0.937-0.937C-10.762-154.937-11.23-154.572-11.23-154z M-11.23-150.048
			c0,0.468,0.469,0.988,1.04,0.988c0.572,0,0.937-0.52,0.937-0.988c0-0.572-0.364-0.988-0.937-0.988
			C-10.762-151.036-11.23-150.62-11.23-150.048z M-11.23-146.044c0,0.572,0.469,0.988,1.04,0.988c0.572,0,0.937-0.416,0.937-0.988
			s-0.364-0.988-0.937-0.988C-10.762-147.032-11.23-146.616-11.23-146.044z M-11.23-141.832c0,0.468,0.469,0.937,1.04,0.937
			c0.572,0,0.937-0.468,0.937-0.937c0-0.624-0.364-1.04-0.937-1.04C-10.762-142.872-11.23-142.456-11.23-141.832z M-11.23-137.724
			c0,0.468,0.469,0.936,1.04,0.936c0.572,0,0.937-0.468,0.937-0.936c0-0.624-0.364-1.04-0.937-1.04
			C-10.762-138.764-11.23-138.348-11.23-137.724z M-11.23-133.563c0,0.572,0.469,0.936,1.04,0.936c0.572,0,0.937-0.364,0.937-0.936
			c0-0.624-0.364-1.04-0.937-1.04C-10.762-134.604-11.23-134.188-11.23-133.563z M-11.23-129.455c0,0.572,0.469,0.936,1.04,0.936
			c0.572,0,0.937-0.364,0.937-0.936c0-0.624-0.364-1.04-0.937-1.04C-10.762-130.495-11.23-130.079-11.23-129.455z M-6.914-157.952
			c0,0.572,0.468,1.04,1.04,1.04s0.937-0.468,0.937-1.04c0-0.572-0.364-0.988-0.937-0.988S-6.914-158.524-6.914-157.952z
			 M-6.914-129.247c0,0.572,0.468,0.936,1.04,0.936s0.937-0.364,0.937-0.936c0-0.624-0.364-1.04-0.937-1.04
			S-6.914-129.871-6.914-129.247z M-6.082-133.096h2.132c7.229,0,10.608-3.38,10.608-9.776C6.658-150.1,3.33-154-3.794-154h-2.288
			V-133.096z M-2.806-157.849c0,0.572,0.468,0.988,1.04,0.988s0.936-0.416,0.936-0.988c0-0.572-0.363-0.988-0.936-0.988
			S-2.806-158.42-2.806-157.849z M-2.598-129.352c0,0.572,0.468,0.937,1.04,0.937c0.571,0,0.936-0.364,0.936-0.937
			c0-0.624-0.364-1.04-0.936-1.04C-2.13-130.392-2.598-129.976-2.598-129.352z M1.198-157.068c0,0.468,0.468,0.936,1.04,0.936
			c0.624,0,0.988-0.468,0.988-0.936c0-0.624-0.364-1.04-0.988-1.04C1.666-158.108,1.198-157.692,1.198-157.068z M1.771-130.184
			c0,0.572,0.468,1.04,1.04,1.04s0.936-0.468,0.936-1.04c0-0.624-0.363-0.936-0.936-0.936S1.771-130.808,1.771-130.184z
			 M4.891-155.092c0,0.572,0.363,0.988,0.936,0.988c0.624,0,1.04-0.416,1.04-0.988c0-0.624-0.416-1.04-1.04-1.04
			C5.254-156.132,4.891-155.716,4.891-155.092z M5.463-132.367c0,0.572,0.468,1.04,1.039,1.04c0.625,0,0.988-0.468,0.988-1.04
			c0-0.624-0.363-0.937-0.988-0.937C5.931-133.304,5.463-132.991,5.463-132.367z M7.698-152.024c0,0.468,0.468,0.988,1.04,0.988
			s0.988-0.52,0.988-0.988c0-0.624-0.416-0.988-0.988-0.988S7.698-152.648,7.698-152.024z M8.271-135.487
			c0,0.468,0.521,0.936,0.988,0.936c0.624,0,0.987-0.468,0.987-0.936c0-0.624-0.363-1.04-0.987-1.04
			C8.791-136.527,8.271-136.111,8.271-135.487z M9.467-148.124c0,0.572,0.416,0.988,0.988,0.988c0.623,0,0.987-0.416,0.987-0.988
			s-0.364-0.988-0.987-0.988C9.883-149.112,9.467-148.696,9.467-148.124z M9.778-139.544c0,0.468,0.468,0.988,1.04,0.988
			s0.988-0.52,0.988-0.988c0-0.572-0.416-0.988-0.988-0.988S9.778-140.116,9.778-139.544z M10.143-143.808
			c0,0.468,0.468,0.988,1.04,0.988s0.937-0.52,0.937-0.988c0-0.572-0.364-0.988-0.937-0.988S10.143-144.38,10.143-143.808z"/>
	</g>
	<g style="display:inline;">
		<path style="fill:#6083FF;" d="M18.654-71.451c-2.496,0-3.953-0.572-3.953-3.432v-29.225c0-2.86,1.457-3.432,3.953-3.432h6.292
			c6.136,0,10.765,1.716,13.937,5.096s4.888,7.853,5.044,13.521c0.052,5.044-1.508,9.256-4.732,12.532
			c-3.172,3.276-8.216,4.94-15.08,4.94H18.654z M17.77-103.849c0,0.572,0.469,0.988,1.04,0.988c0.572,0,0.937-0.416,0.937-0.988
			c0-0.572-0.364-0.988-0.937-0.988C18.238-104.836,17.77-104.42,17.77-103.849z M17.77-100c0,0.572,0.469,1.04,1.04,1.04
			c0.572,0,0.937-0.468,0.937-1.04c0-0.572-0.364-0.937-0.937-0.937C18.238-100.937,17.77-100.572,17.77-100z M17.77-96.048
			c0,0.468,0.469,0.988,1.04,0.988c0.572,0,0.937-0.52,0.937-0.988c0-0.572-0.364-0.988-0.937-0.988
			C18.238-97.036,17.77-96.62,17.77-96.048z M17.77-92.044c0,0.572,0.469,0.988,1.04,0.988c0.572,0,0.937-0.416,0.937-0.988
			s-0.364-0.988-0.937-0.988C18.238-93.032,17.77-92.616,17.77-92.044z M17.77-87.832c0,0.468,0.469,0.937,1.04,0.937
			c0.572,0,0.937-0.468,0.937-0.937c0-0.624-0.364-1.04-0.937-1.04C18.238-88.872,17.77-88.456,17.77-87.832z M17.77-83.724
			c0,0.468,0.469,0.936,1.04,0.936c0.572,0,0.937-0.468,0.937-0.936c0-0.624-0.364-1.04-0.937-1.04
			C18.238-84.764,17.77-84.348,17.77-83.724z M17.77-79.563c0,0.572,0.469,0.936,1.04,0.936c0.572,0,0.937-0.364,0.937-0.936
			c0-0.624-0.364-1.04-0.937-1.04C18.238-80.604,17.77-80.188,17.77-79.563z M17.77-75.455c0,0.572,0.469,0.936,1.04,0.936
			c0.572,0,0.937-0.364,0.937-0.936c0-0.624-0.364-1.04-0.937-1.04C18.238-76.495,17.77-76.079,17.77-75.455z M22.086-103.952
			c0,0.572,0.468,1.04,1.04,1.04s0.937-0.468,0.937-1.04c0-0.572-0.364-0.988-0.937-0.988S22.086-104.524,22.086-103.952z
			 M22.086-75.247c0,0.572,0.468,0.936,1.04,0.936s0.937-0.364,0.937-0.936c0-0.624-0.364-1.04-0.937-1.04
			S22.086-75.871,22.086-75.247z M26.194-103.849c0,0.572,0.468,0.988,1.04,0.988s0.936-0.416,0.936-0.988
			c0-0.572-0.363-0.988-0.936-0.988S26.194-104.42,26.194-103.849z M26.402-75.352c0,0.572,0.468,0.937,1.04,0.937
			c0.571,0,0.936-0.364,0.936-0.937c0-0.624-0.364-1.04-0.936-1.04C26.87-76.392,26.402-75.976,26.402-75.352z M30.198-103.068
			c0,0.468,0.468,0.936,1.04,0.936c0.624,0,0.988-0.468,0.988-0.936c0-0.624-0.364-1.04-0.988-1.04
			C30.666-104.108,30.198-103.692,30.198-103.068z M30.771-76.184c0,0.572,0.468,1.04,1.04,1.04s0.936-0.468,0.936-1.04
			c0-0.624-0.363-0.936-0.936-0.936S30.771-76.808,30.771-76.184z M33.891-101.092c0,0.572,0.363,0.988,0.936,0.988
			c0.624,0,1.04-0.416,1.04-0.988c0-0.624-0.416-1.04-1.04-1.04C34.254-102.132,33.891-101.716,33.891-101.092z M34.463-78.367
			c0,0.572,0.468,1.04,1.039,1.04c0.625,0,0.988-0.468,0.988-1.04c0-0.624-0.363-0.937-0.988-0.937
			C34.931-79.304,34.463-78.991,34.463-78.367z M36.698-98.024c0,0.468,0.468,0.988,1.04,0.988s0.988-0.52,0.988-0.988
			c0-0.624-0.416-0.988-0.988-0.988S36.698-98.648,36.698-98.024z M37.271-81.487c0,0.468,0.521,0.936,0.988,0.936
			c0.624,0,0.987-0.468,0.987-0.936c0-0.624-0.363-1.04-0.987-1.04C37.791-82.527,37.271-82.111,37.271-81.487z M38.467-94.124
			c0,0.572,0.416,0.988,0.988,0.988c0.623,0,0.987-0.416,0.987-0.988s-0.364-0.988-0.987-0.988
			C38.883-95.112,38.467-94.696,38.467-94.124z M38.778-85.544c0,0.468,0.468,0.988,1.04,0.988s0.988-0.52,0.988-0.988
			c0-0.572-0.416-0.988-0.988-0.988S38.778-86.116,38.778-85.544z M39.143-89.808c0,0.468,0.468,0.988,1.04,0.988
			s0.937-0.52,0.937-0.988c0-0.572-0.364-0.988-0.937-0.988S39.143-90.38,39.143-89.808z"/>
	</g>
	<rect x="-35" y="-138" style="display:inline;fill:#FFC659;" width="9" height="9"/>
	<rect x="-35" y="-127" style="display:inline;fill:#6083FF;" width="9" height="9"/>
	<g style="display:inline;">
		<ellipse style="fill:#FFFFFF;" cx="28.726" cy="-89.241" rx="7.303" ry="11.065"/>
		<circle style="fill:#FFC659;" cx="28.726" cy="-89.241" r="5.323"/>
		<circle style="fill:#6083FF;" cx="28.726" cy="-89.241" r="1.994"/>
	</g>
	<g style="display:inline;">
		<defs>
			<rect id="SVGID_1_" y="-108" width="15" height="36"/>
		</defs>
		<clipPath id="SVGID_2_">
			<use xlink:href="#SVGID_1_"  style="overflow:visible;"/>
		</clipPath>
		<g style="clip-path:url(#SVGID_2_);">
			<path style="fill:#6083FF;" d="M37.111-88.167H2.889c-0.675,0-1.222-0.547-1.222-1.222v0c0-0.675,0.547-1.222,1.222-1.222h34.222
				c0.675,0,1.222,0.547,1.222,1.222v0C38.333-88.714,37.786-88.167,37.111-88.167z"/>
			<path style="fill:#6083FF;" d="M36.497-94.093L4.339-82.388c-0.634,0.231-1.336-0.096-1.567-0.73l0,0
				c-0.231-0.634,0.096-1.336,0.73-1.567L35.661-96.39c0.634-0.231,1.336,0.096,1.567,0.73l0,0
				C37.459-95.025,37.132-94.324,36.497-94.093z"/>
			<path style="fill:#6083FF;" d="M33.894-99.451L7.678-77.454c-0.517,0.434-1.288,0.366-1.722-0.151l0,0
				c-0.434-0.517-0.366-1.288,0.151-1.722l26.216-21.998c0.517-0.434,1.288-0.366,1.722,0.151v0
				C34.478-100.656,34.411-99.885,33.894-99.451z"/>
			<path style="fill:#6083FF;" d="M29.614-103.596L12.503-73.959c-0.338,0.585-1.085,0.785-1.67,0.447h0
				c-0.585-0.338-0.785-1.085-0.447-1.67l17.111-29.637c0.338-0.585,1.085-0.785,1.67-0.447h0
				C29.751-104.929,29.952-104.181,29.614-103.596z"/>
			<path style="fill:#6083FF;" d="M24.175-106.028l-5.943,33.702c-0.117,0.665-0.751,1.109-1.416,0.991h0
				c-0.665-0.117-1.109-0.751-0.991-1.416l5.943-33.702c0.117-0.665,0.751-1.109,1.416-0.991h0
				C23.848-107.326,24.292-106.693,24.175-106.028z"/>
			<path style="fill:#6083FF;" d="M18.232-106.452l5.943,33.702c0.117,0.665-0.327,1.299-0.991,1.416h0
				c-0.665,0.117-1.299-0.327-1.416-0.991l-5.943-33.702c-0.117-0.665,0.327-1.299,0.991-1.416h0
				C17.481-107.561,18.115-107.117,18.232-106.452z"/>
			<path style="fill:#6083FF;" d="M12.503-104.819l17.111,29.637c0.338,0.585,0.137,1.332-0.447,1.67h0
				c-0.585,0.338-1.332,0.137-1.67-0.447l-17.111-29.637c-0.338-0.585-0.137-1.332,0.447-1.67h0
				C11.418-105.604,12.165-105.403,12.503-104.819z"/>
			<path style="fill:#6083FF;" d="M7.678-101.324l26.216,21.998c0.517,0.434,0.585,1.205,0.151,1.722v0
				c-0.434,0.517-1.205,0.585-1.722,0.151L6.106-99.451c-0.517-0.434-0.585-1.205-0.151-1.722l0,0
				C6.39-101.69,7.161-101.758,7.678-101.324z"/>
			<path style="fill:#6083FF;" d="M4.339-96.39l32.158,11.705c0.634,0.231,0.961,0.932,0.73,1.567v0
				c-0.231,0.634-0.932,0.961-1.567,0.73L3.503-94.093c-0.634-0.231-0.961-0.932-0.73-1.567h0
				C3.003-96.294,3.705-96.621,4.339-96.39z"/>
		</g>
	</g>
</g>
<g>
	<g>
		<path style="fill:#6083FF;" d="M66.102,22.456l5.097,6.292c0.987,1.041,1.768,2.08,1.768,3.953c0,2.132-1.508,3.848-3.744,3.848
			c-1.508-0.052-2.6-0.729-3.848-2.236l-8.685-11.544v8.788c0,3.536-1.768,4.992-4.108,4.992c-2.444,0-4.108-1.456-4.108-4.992
			V3.892c0-2.86,1.457-3.433,3.953-3.433h7.124c8.528,0,13.468,4.369,13.468,11.285c0,2.912-0.728,5.304-2.184,7.229
			C69.43,20.844,67.818,21.988,66.102,22.456z M51.541,4.203c0,0.572,0.469,0.988,1.04,0.988c0.572,0,0.937-0.416,0.937-0.988
			c0-0.623-0.364-0.987-0.937-0.987C52.01,3.216,51.541,3.58,51.541,4.203z M51.541,8c0,0.572,0.469,1.04,1.04,1.04
			c0.572,0,0.937-0.468,0.937-1.04s-0.364-0.937-0.937-0.937C52.01,7.063,51.541,7.428,51.541,8z M51.541,12.004
			c0,0.468,0.469,0.988,1.04,0.988c0.572,0,0.937-0.521,0.937-0.988c0-0.572-0.364-0.988-0.937-0.988
			C52.01,11.016,51.541,11.432,51.541,12.004z M51.541,16.008c0,0.572,0.469,0.988,1.04,0.988c0.572,0,0.937-0.416,0.937-0.988
			s-0.364-0.988-0.937-0.988C52.01,15.02,51.541,15.436,51.541,16.008z M51.541,20.012c0,0.469,0.469,0.937,1.04,0.937
			c0.572,0,0.937-0.468,0.937-0.937c0-0.623-0.364-1.039-0.937-1.039C52.01,18.973,51.541,19.389,51.541,20.012z M51.541,24.12
			c0,0.572,0.469,0.937,1.04,0.937c0.572,0,0.937-0.364,0.937-0.937c0-0.624-0.364-1.04-0.937-1.04
			C52.01,23.08,51.541,23.496,51.541,24.12z M51.541,28.125c0,0.571,0.469,0.987,1.04,0.987c0.572,0,0.937-0.416,0.937-0.987
			c0-0.625-0.364-1.041-0.937-1.041C52.01,27.084,51.541,27.5,51.541,28.125z M51.541,32.181c0,0.572,0.469,1.04,1.04,1.04
			c0.572,0,0.937-0.468,0.937-1.04c0-0.624-0.364-0.988-0.937-0.988C52.01,31.192,51.541,31.557,51.541,32.181z M55.493,4.1
			c0,0.572,0.468,1.04,1.04,1.04c0.624,0,0.937-0.468,0.937-1.04s-0.312-0.988-0.937-0.988C55.961,3.111,55.493,3.527,55.493,4.1z
			 M55.493,19.96c0,0.468,0.468,0.937,1.04,0.937c0.624,0,0.937-0.469,0.937-0.937c0-0.624-0.312-1.04-0.937-1.04
			C55.961,18.92,55.493,19.336,55.493,19.96z M56.689,16.268h2.809c3.275,0,5.199-1.455,5.199-3.951C64.697,9.56,62.826,8,59.55,8
			h-2.86V16.268z M59.342,19.96c0,0.468,0.416,0.937,0.988,0.937c0.623,0,0.987-0.469,0.987-0.937c0-0.624-0.364-1.04-0.987-1.04
			C59.758,18.92,59.342,19.336,59.342,19.96z M59.498,4.151c0,0.572,0.416,0.988,0.987,0.988c0.624,0,0.988-0.416,0.988-0.988
			c0-0.571-0.364-0.987-0.988-0.987C59.914,3.164,59.498,3.58,59.498,4.151z M60.901,23.652c0,0.572,0.468,0.988,0.937,0.988
			c0.624,0,1.04-0.416,1.04-0.988c0-0.624-0.416-0.988-1.04-0.988C61.369,22.664,60.901,23.028,60.901,23.652z M63.138,19.024
			c0,0.571,0.468,1.04,0.937,1.04c0.623,0,1.039-0.469,1.039-1.04c0-0.624-0.416-0.937-1.039-0.937
			C63.605,18.088,63.138,18.4,63.138,19.024z M63.397,4.932c0,0.468,0.364,0.936,0.937,0.936c0.624,0,1.04-0.468,1.04-0.936
			c0-0.624-0.416-1.04-1.04-1.04C63.762,3.892,63.397,4.308,63.397,4.932z M63.449,26.668c0,0.469,0.364,0.937,0.937,0.937
			c0.624,0,1.04-0.468,1.04-0.937c0-0.623-0.416-1.039-1.04-1.039C63.813,25.629,63.449,26.045,63.449,26.668z M65.738,29.633
			c0,0.572,0.416,1.04,0.987,1.04c0.624,0,0.988-0.468,0.988-1.04c0-0.624-0.364-0.937-0.988-0.937
			C66.154,28.696,65.738,29.009,65.738,29.633z M66.361,17.152c0,0.572,0.469,0.988,1.041,0.988c0.571,0,0.936-0.416,0.936-0.988
			c0-0.624-0.364-0.988-0.936-0.988C66.83,16.164,66.361,16.528,66.361,17.152z M66.466,7.012c0,0.468,0.468,0.988,1.04,0.988
			s0.936-0.521,0.936-0.988c0-0.624-0.363-1.04-0.936-1.04S66.466,6.388,66.466,7.012z M68.13,10.132c0,0.572,0.416,1.04,0.988,1.04
			c0.624,0,0.987-0.468,0.987-1.04s-0.363-0.937-0.987-0.937C68.546,9.195,68.13,9.56,68.13,10.132z M68.13,32.597
			c0,0.572,0.416,0.937,0.988,0.937c0.624,0,0.987-0.364,0.987-0.937c0-0.624-0.363-1.04-0.987-1.04
			C68.546,31.557,68.13,31.973,68.13,32.597z M68.182,13.824c0,0.468,0.416,0.936,0.988,0.936c0.624,0,0.988-0.468,0.988-0.936
			c0-0.624-0.364-1.04-0.988-1.04C68.598,12.784,68.182,13.2,68.182,13.824z"/>
		<path style="fill:#6083FF;" d="M85.028,29.841l-1.144,3.536c-0.416,1.248-0.937,2.184-1.561,2.808
			c-0.676,0.677-1.456,0.988-2.34,0.988c-2.444,0-4.473-1.82-4.473-3.952c0-0.936,0.156-1.716,0.416-2.393L85.809,5.66
			c1.352-3.537,3.536-5.305,6.553-5.305c2.859,0,4.888,1.612,6.031,4.784l9.413,25.533c0.364,1.196,0.571,2.08,0.571,2.651
			c0,2.236-1.664,3.849-4.107,3.849c-2.028,0-3.484-1.353-4.316-4.004l-1.04-3.328H85.028z M80.349,33.377
			c0-0.469-0.416-0.988-0.988-0.988c-0.624,0-1.04,0.52-1.04,0.988c0,0.572,0.416,0.988,1.04,0.988
			C79.933,34.365,80.349,33.949,80.349,33.377z M81.597,29.789c0-0.572-0.468-0.937-1.04-0.937c-0.469,0-0.937,0.364-0.937,0.937
			c0,0.623,0.468,1.039,0.937,1.039C81.129,30.828,81.597,30.412,81.597,29.789z M82.896,26.252c0-0.571-0.364-1.039-0.936-1.039
			c-0.625,0-1.041,0.468-1.041,1.039c0,0.625,0.416,0.937,1.041,0.937C82.532,27.188,82.896,26.877,82.896,26.252z M84.509,22.717
			c0-0.469-0.468-0.988-1.04-0.988c-0.624,0-0.988,0.52-0.988,0.988c0,0.571,0.364,0.987,0.988,0.987
			C84.041,23.704,84.509,23.288,84.509,22.717z M85.86,19.076c0-0.572-0.468-0.936-1.04-0.936c-0.468,0-0.936,0.363-0.936,0.936
			c0,0.624,0.468,1.04,0.936,1.04C85.393,20.116,85.86,19.7,85.86,19.076z M86.9,26.252c0-0.571-0.363-1.039-0.936-1.039
			c-0.624,0-1.04,0.468-1.04,1.039c0,0.625,0.416,0.937,1.04,0.937C86.537,27.188,86.9,26.877,86.9,26.252z M87.108,15.488
			c0-0.572-0.364-1.04-0.936-1.04c-0.624,0-1.04,0.468-1.04,1.04c0,0.624,0.416,0.936,1.04,0.936
			C86.744,16.424,87.108,16.112,87.108,15.488z M88.617,11.848c0-0.468-0.469-0.988-1.041-0.988c-0.623,0-0.936,0.521-0.936,0.988
			c0,0.572,0.312,0.988,0.936,0.988C88.148,12.836,88.617,12.42,88.617,11.848z M92.152,10.392l-4.628,12.169h8.997L92.152,10.392z
			 M89.969,8.26c0-0.468-0.52-0.936-0.988-0.936c-0.572,0-0.988,0.468-0.988,0.936c0,0.624,0.416,1.04,0.988,1.04
			C89.449,9.3,89.969,8.884,89.969,8.26z M91.009,26.252c0-0.571-0.416-1.039-0.988-1.039c-0.624,0-0.987,0.468-0.987,1.039
			c0,0.625,0.363,0.937,0.987,0.937C90.593,27.188,91.009,26.877,91.009,26.252z M91.529,4.983c0-0.571-0.469-1.04-0.937-1.04
			c-0.624,0-1.04,0.469-1.04,1.04c0,0.572,0.416,0.937,1.04,0.937C91.061,5.92,91.529,5.556,91.529,4.983z M94.805,4.983
			c0-0.571-0.468-1.04-1.04-1.04c-0.571,0-0.936,0.469-0.936,1.04c0,0.572,0.364,0.937,0.936,0.937
			C94.337,5.92,94.805,5.556,94.805,4.983z M95.013,26.252c0-0.571-0.468-1.039-1.04-1.039c-0.624,0-0.988,0.468-0.988,1.039
			c0,0.625,0.364,0.937,0.988,0.937C94.545,27.188,95.013,26.877,95.013,26.252z M96.417,8.26c0-0.468-0.521-0.936-0.988-0.936
			c-0.571,0-0.987,0.468-0.987,0.936c0,0.624,0.416,1.04,0.987,1.04C95.896,9.3,96.417,8.884,96.417,8.26z M97.717,11.848
			c0-0.468-0.363-0.988-0.936-0.988c-0.624,0-1.04,0.521-1.04,0.988c0,0.572,0.416,0.988,1.04,0.988
			C97.354,12.836,97.717,12.42,97.717,11.848z M99.069,15.488c0-0.572-0.468-1.04-1.04-1.04s-0.937,0.468-0.937,1.04
			c0,0.624,0.364,0.936,0.937,0.936S99.069,16.112,99.069,15.488z M99.069,26.252c0-0.571-0.468-1.039-1.04-1.039
			s-0.937,0.468-0.937,1.039c0,0.625,0.364,0.937,0.937,0.937S99.069,26.877,99.069,26.252z M100.317,19.076
			c0-0.572-0.416-0.936-0.988-0.936s-0.988,0.363-0.988,0.936c0,0.624,0.416,1.04,0.988,1.04S100.317,19.7,100.317,19.076z
			 M101.565,22.717c0-0.469-0.416-0.988-0.988-0.988c-0.624,0-0.988,0.52-0.988,0.988c0,0.571,0.364,0.987,0.988,0.987
			C101.149,23.704,101.565,23.288,101.565,22.717z M102.917,26.252c0-0.571-0.52-1.039-0.987-1.039
			c-0.625,0-0.988,0.468-0.988,1.039c0,0.625,0.363,0.937,0.988,0.937C102.397,27.188,102.917,26.877,102.917,26.252z
			 M104.165,29.736c0-0.572-0.52-0.936-0.987-0.936c-0.625,0-1.041,0.363-1.041,0.936c0,0.624,0.416,1.04,1.041,1.04
			C103.646,30.776,104.165,30.36,104.165,29.736z M105.518,33.377c0-0.469-0.469-0.988-1.04-0.988c-0.572,0-0.937,0.52-0.937,0.988
			c0,0.572,0.364,0.988,0.937,0.988C105.049,34.365,105.518,33.949,105.518,33.377z"/>
		<path style="fill:#6083FF;" d="M140.929,15.645l-7.384,12.636c-0.676,0.884-1.456,1.456-2.393,1.612
			c-0.26,0.052-0.52,0.052-0.779,0.052c-0.261,0-0.521,0-0.832-0.052c-0.885-0.156-1.664-0.729-2.289-1.612l-7.436-12.636
			l0.26,15.912c0,3.536-1.768,4.992-4.108,4.992c-2.444,0-4.108-1.456-4.108-4.992V5.867c0-4.107,1.509-5.408,4.576-5.408
			c2.393,0,3.641,0.677,4.629,2.444l9.309,15.757l9.256-15.757c0.988-1.456,2.496-2.444,4.68-2.444c3.068,0,4.629,1.301,4.629,5.408
			v25.689c0,3.536-1.717,4.992-4.16,4.992c-2.34,0-4.108-1.456-4.108-4.992L140.929,15.645z M114.928,4.412
			c0,0.571,0.469,0.987,1.04,0.987c0.572,0,0.937-0.416,0.937-0.987c0-0.625-0.364-0.988-0.937-0.988
			C115.396,3.424,114.928,3.787,114.928,4.412z M114.928,8.363c0,0.572,0.469,1.041,1.04,1.041c0.572,0,0.937-0.469,0.937-1.041
			c0-0.571-0.364-0.987-0.937-0.987C115.396,7.376,114.928,7.792,114.928,8.363z M114.928,12.316c0,0.571,0.469,1.039,1.04,1.039
			c0.572,0,0.937-0.468,0.937-1.039c0-0.572-0.364-0.937-0.937-0.937C115.396,11.38,114.928,11.744,114.928,12.316z M114.928,16.32
			c0,0.468,0.469,0.988,1.04,0.988c0.572,0,0.937-0.521,0.937-0.988c0-0.572-0.364-0.988-0.937-0.988
			C115.396,15.332,114.928,15.748,114.928,16.32z M114.928,20.324c0,0.468,0.469,0.936,1.04,0.936c0.572,0,0.937-0.468,0.937-0.936
			c0-0.624-0.364-1.04-0.937-1.04C115.396,19.284,114.928,19.7,114.928,20.324z M114.928,24.276c0,0.468,0.469,0.937,1.04,0.937
			c0.572,0,0.937-0.469,0.937-0.937c0-0.624-0.364-1.04-0.937-1.04C115.396,23.236,114.928,23.652,114.928,24.276z M114.928,28.229
			c0,0.572,0.469,0.936,1.04,0.936c0.572,0,0.937-0.363,0.937-0.936c0-0.624-0.364-1.04-0.937-1.04
			C115.396,27.188,114.928,27.604,114.928,28.229z M114.928,32.181c0,0.572,0.469,1.04,1.04,1.04c0.572,0,0.937-0.468,0.937-1.04
			c0-0.624-0.364-0.988-0.937-0.988C115.396,31.192,114.928,31.557,114.928,32.181z M118.725,8.416c0,0.572,0.468,1.04,1.039,1.04
			c0.625,0,0.988-0.468,0.988-1.04s-0.363-0.988-0.988-0.988C119.192,7.428,118.725,7.844,118.725,8.416z M120.752,12.004
			c0,0.468,0.416,0.988,0.988,0.988c0.624,0,0.988-0.521,0.988-0.988c0-0.572-0.364-0.988-0.988-0.988
			C121.168,11.016,120.752,11.432,120.752,12.004z M122.885,15.488c0,0.572,0.416,0.936,0.987,0.936
			c0.624,0,0.988-0.363,0.988-0.936c0-0.624-0.364-1.04-0.988-1.04C123.301,14.448,122.885,14.864,122.885,15.488z M124.912,18.868
			c0,0.572,0.416,1.04,0.988,1.04c0.624,0,0.988-0.468,0.988-1.04s-0.364-0.937-0.988-0.937
			C125.328,17.932,124.912,18.296,124.912,18.868z M127.045,22.456c0,0.416,0.416,0.937,0.987,0.937
			c0.624,0,0.988-0.521,0.988-0.937c0-0.624-0.364-1.04-0.988-1.04C127.461,21.416,127.045,21.832,127.045,22.456z M129.332,25.732
			c0,0.572,0.416,1.04,0.988,1.04c0.624,0,0.988-0.468,0.988-1.04c0-0.624-0.364-0.988-0.988-0.988
			C129.748,24.744,129.332,25.108,129.332,25.732z M131.568,22.456c0,0.416,0.469,0.937,1.04,0.937c0.624,0,0.988-0.521,0.988-0.937
			c0-0.624-0.364-1.04-0.988-1.04C132.037,21.416,131.568,21.832,131.568,22.456z M133.648,18.868c0,0.572,0.416,1.04,0.988,1.04
			c0.624,0,0.988-0.468,0.988-1.04s-0.364-0.937-0.988-0.937C134.064,17.932,133.648,18.296,133.648,18.868z M135.885,15.488
			c0,0.572,0.416,0.936,0.988,0.936c0.624,0,0.988-0.363,0.988-0.936c0-0.624-0.364-1.04-0.988-1.04
			C136.301,14.448,135.885,14.864,135.885,15.488z M138.017,12.004c0,0.468,0.416,0.988,0.988,0.988
			c0.624,0,0.988-0.521,0.988-0.988c0-0.572-0.364-0.988-0.988-0.988C138.433,11.016,138.017,11.432,138.017,12.004z M139.993,8.416
			c0,0.572,0.416,1.04,0.987,1.04c0.625,0,0.988-0.468,0.988-1.04s-0.363-0.988-0.988-0.988
			C140.409,7.428,139.993,7.844,139.993,8.416z M143.789,4.412c0,0.571,0.52,0.987,0.988,0.987c0.624,0,1.04-0.416,1.04-0.987
			c0-0.625-0.416-0.988-1.04-0.988C144.309,3.424,143.789,3.787,143.789,4.412z M143.789,8.363c0,0.572,0.52,1.041,0.988,1.041
			c0.624,0,1.04-0.469,1.04-1.041c0-0.571-0.416-0.987-1.04-0.987C144.309,7.376,143.789,7.792,143.789,8.363z M143.789,12.316
			c0,0.571,0.52,1.039,0.988,1.039c0.624,0,1.04-0.468,1.04-1.039c0-0.572-0.416-0.937-1.04-0.937
			C144.309,11.38,143.789,11.744,143.789,12.316z M143.789,16.32c0,0.468,0.52,0.988,0.988,0.988c0.624,0,1.04-0.521,1.04-0.988
			c0-0.572-0.416-0.988-1.04-0.988C144.309,15.332,143.789,15.748,143.789,16.32z M143.789,20.324c0,0.468,0.52,0.936,0.988,0.936
			c0.624,0,1.04-0.468,1.04-0.936c0-0.624-0.416-1.04-1.04-1.04C144.309,19.284,143.789,19.7,143.789,20.324z M143.789,24.276
			c0,0.468,0.52,0.937,0.988,0.937c0.624,0,1.04-0.469,1.04-0.937c0-0.624-0.416-1.04-1.04-1.04
			C144.309,23.236,143.789,23.652,143.789,24.276z M143.789,28.229c0,0.572,0.52,0.936,0.988,0.936c0.624,0,1.04-0.363,1.04-0.936
			c0-0.624-0.416-1.04-1.04-1.04C144.309,27.188,143.789,27.604,143.789,28.229z M143.789,32.181c0,0.572,0.52,1.04,0.988,1.04
			c0.624,0,1.04-0.468,1.04-1.04c0-0.624-0.416-0.988-1.04-0.988C144.309,31.192,143.789,31.557,143.789,32.181z"/>
		<path style="fill:#6083FF;" d="M161.936,29.841l-1.144,3.536c-0.416,1.248-0.937,2.184-1.561,2.808
			c-0.676,0.677-1.456,0.988-2.34,0.988c-2.444,0-4.472-1.82-4.472-3.952c0-0.936,0.155-1.716,0.416-2.393l9.88-25.168
			c1.353-3.537,3.536-5.305,6.552-5.305c2.86,0,4.889,1.612,6.033,4.784l9.412,25.533c0.363,1.196,0.572,2.08,0.572,2.651
			c0,2.236-1.664,3.849-4.108,3.849c-2.028,0-3.484-1.353-4.316-4.004l-1.04-3.328H161.936z M157.256,33.377
			c0-0.469-0.416-0.988-0.988-0.988c-0.624,0-1.04,0.52-1.04,0.988c0,0.572,0.416,0.988,1.04,0.988
			C156.84,34.365,157.256,33.949,157.256,33.377z M158.504,29.789c0-0.572-0.469-0.937-1.04-0.937c-0.468,0-0.937,0.364-0.937,0.937
			c0,0.623,0.469,1.039,0.937,1.039C158.035,30.828,158.504,30.412,158.504,29.789z M159.804,26.252
			c0-0.571-0.364-1.039-0.937-1.039c-0.623,0-1.039,0.468-1.039,1.039c0,0.625,0.416,0.937,1.039,0.937
			C159.439,27.188,159.804,26.877,159.804,26.252z M161.416,22.717c0-0.469-0.469-0.988-1.04-0.988c-0.624,0-0.988,0.52-0.988,0.988
			c0,0.571,0.364,0.987,0.988,0.987C160.947,23.704,161.416,23.288,161.416,22.717z M162.768,19.076c0-0.572-0.468-0.936-1.04-0.936
			c-0.468,0-0.936,0.363-0.936,0.936c0,0.624,0.468,1.04,0.936,1.04C162.3,20.116,162.768,19.7,162.768,19.076z M163.808,26.252
			c0-0.571-0.364-1.039-0.936-1.039c-0.624,0-1.04,0.468-1.04,1.039c0,0.625,0.416,0.937,1.04,0.937
			C163.443,27.188,163.808,26.877,163.808,26.252z M164.016,15.488c0-0.572-0.363-1.04-0.936-1.04c-0.624,0-1.04,0.468-1.04,1.04
			c0,0.624,0.416,0.936,1.04,0.936C163.652,16.424,164.016,16.112,164.016,15.488z M165.523,11.848c0-0.468-0.468-0.988-1.039-0.988
			c-0.625,0-0.937,0.521-0.937,0.988c0,0.572,0.312,0.988,0.937,0.988C165.056,12.836,165.523,12.42,165.523,11.848z
			 M169.061,10.392l-4.629,12.169h8.996L169.061,10.392z M166.876,8.26c0-0.468-0.521-0.936-0.988-0.936
			c-0.571,0-0.987,0.468-0.987,0.936c0,0.624,0.416,1.04,0.987,1.04C166.355,9.3,166.876,8.884,166.876,8.26z M167.916,26.252
			c0-0.571-0.416-1.039-0.988-1.039c-0.624,0-0.988,0.468-0.988,1.039c0,0.625,0.364,0.937,0.988,0.937
			C167.5,27.188,167.916,26.877,167.916,26.252z M168.436,4.983c0-0.571-0.468-1.04-0.936-1.04c-0.624,0-1.04,0.469-1.04,1.04
			c0,0.572,0.416,0.937,1.04,0.937C167.968,5.92,168.436,5.556,168.436,4.983z M171.712,4.983c0-0.571-0.468-1.04-1.04-1.04
			s-0.936,0.469-0.936,1.04c0,0.572,0.363,0.937,0.936,0.937S171.712,5.556,171.712,4.983z M171.92,26.252
			c0-0.571-0.468-1.039-1.04-1.039c-0.624,0-0.987,0.468-0.987,1.039c0,0.625,0.363,0.937,0.987,0.937
			C171.452,27.188,171.92,26.877,171.92,26.252z M173.324,8.26c0-0.468-0.52-0.936-0.988-0.936c-0.572,0-0.988,0.468-0.988,0.936
			c0,0.624,0.416,1.04,0.988,1.04C172.805,9.3,173.324,8.884,173.324,8.26z M174.624,11.848c0-0.468-0.364-0.988-0.936-0.988
			c-0.624,0-1.04,0.521-1.04,0.988c0,0.572,0.416,0.988,1.04,0.988C174.26,12.836,174.624,12.42,174.624,11.848z M175.977,15.488
			c0-0.572-0.469-1.04-1.04-1.04c-0.572,0-0.937,0.468-0.937,1.04c0,0.624,0.364,0.936,0.937,0.936
			C175.508,16.424,175.977,16.112,175.977,15.488z M175.977,26.252c0-0.571-0.469-1.039-1.04-1.039
			c-0.572,0-0.937,0.468-0.937,1.039c0,0.625,0.364,0.937,0.937,0.937C175.508,27.188,175.977,26.877,175.977,26.252z
			 M177.225,19.076c0-0.572-0.416-0.936-0.988-0.936s-0.988,0.363-0.988,0.936c0,0.624,0.416,1.04,0.988,1.04
			S177.225,19.7,177.225,19.076z M178.473,22.717c0-0.469-0.416-0.988-0.988-0.988c-0.624,0-0.988,0.52-0.988,0.988
			c0,0.571,0.364,0.987,0.988,0.987C178.057,23.704,178.473,23.288,178.473,22.717z M179.824,26.252c0-0.571-0.52-1.039-0.988-1.039
			c-0.623,0-0.987,0.468-0.987,1.039c0,0.625,0.364,0.937,0.987,0.937C179.305,27.188,179.824,26.877,179.824,26.252z
			 M181.072,29.736c0-0.572-0.52-0.936-0.988-0.936c-0.623,0-1.039,0.363-1.039,0.936c0,0.624,0.416,1.04,1.039,1.04
			C180.553,30.776,181.072,30.36,181.072,29.736z M182.425,33.377c0-0.469-0.468-0.988-1.04-0.988s-0.937,0.52-0.937,0.988
			c0,0.572,0.364,0.988,0.937,0.988S182.425,33.949,182.425,33.377z"/>
	</g>
	<g>
		<path style="fill:#6083FF;" d="M18.654,36.549c-2.496,0-3.953-0.572-3.953-3.432V3.892c0-2.86,1.457-3.432,3.953-3.432h6.292
			c6.136,0,10.765,1.716,13.937,5.096s4.888,7.853,5.044,13.521c0.052,5.044-1.508,9.256-4.732,12.532
			c-3.172,3.276-8.216,4.94-15.08,4.94H18.654z"/>
		<path style="fill:#FFFFFF;" d="M17.77,4.151c0,0.572,0.469,0.988,1.04,0.988c0.572,0,0.937-0.416,0.937-0.988
			c0-0.572-0.364-0.988-0.937-0.988C18.238,3.164,17.77,3.58,17.77,4.151z"/>
		<path style="fill:#FFFFFF;" d="M17.77,8c0,0.572,0.469,1.04,1.04,1.04c0.572,0,0.937-0.468,0.937-1.04
			c0-0.572-0.364-0.937-0.937-0.937C18.238,7.063,17.77,7.428,17.77,8z"/>
		<path style="fill:#FFFFFF;" d="M17.77,11.952c0,0.468,0.469,0.988,1.04,0.988c0.572,0,0.937-0.52,0.937-0.988
			c0-0.572-0.364-0.988-0.937-0.988C18.238,10.964,17.77,11.38,17.77,11.952z"/>
		<path style="fill:#FFFFFF;" d="M17.77,15.956c0,0.572,0.469,0.988,1.04,0.988c0.572,0,0.937-0.416,0.937-0.988
			s-0.364-0.988-0.937-0.988C18.238,14.968,17.77,15.384,17.77,15.956z"/>
		<path style="fill:#FFFFFF;" d="M17.77,20.168c0,0.468,0.469,0.937,1.04,0.937c0.572,0,0.937-0.468,0.937-0.937
			c0-0.624-0.364-1.04-0.937-1.04C18.238,19.128,17.77,19.544,17.77,20.168z"/>
		<path style="fill:#FFFFFF;" d="M17.77,24.276c0,0.468,0.469,0.936,1.04,0.936c0.572,0,0.937-0.468,0.937-0.936
			c0-0.624-0.364-1.04-0.937-1.04C18.238,23.236,17.77,23.652,17.77,24.276z"/>
		<path style="fill:#FFFFFF;" d="M17.77,28.437c0,0.572,0.469,0.936,1.04,0.936c0.572,0,0.937-0.364,0.937-0.936
			c0-0.624-0.364-1.04-0.937-1.04C18.238,27.396,17.77,27.812,17.77,28.437z"/>
		<path style="fill:#FFFFFF;" d="M17.77,32.545c0,0.572,0.469,0.936,1.04,0.936c0.572,0,0.937-0.364,0.937-0.936
			c0-0.624-0.364-1.04-0.937-1.04C18.238,31.505,17.77,31.921,17.77,32.545z"/>
		<path style="fill:#FFFFFF;" d="M22.086,4.048c0,0.572,0.468,1.04,1.04,1.04s0.937-0.468,0.937-1.04
			c0-0.572-0.364-0.988-0.937-0.988S22.086,3.476,22.086,4.048z"/>
		<path style="fill:#FFFFFF;" d="M22.086,32.753c0,0.572,0.468,0.936,1.04,0.936s0.937-0.364,0.937-0.936
			c0-0.624-0.364-1.04-0.937-1.04S22.086,32.129,22.086,32.753z"/>
		<path style="fill:#FFFFFF;" d="M26.194,4.151c0,0.572,0.468,0.988,1.04,0.988s0.936-0.416,0.936-0.988
			c0-0.572-0.363-0.988-0.936-0.988S26.194,3.58,26.194,4.151z"/>
		<path style="fill:#FFFFFF;" d="M26.402,32.648c0,0.572,0.468,0.937,1.04,0.937c0.571,0,0.936-0.364,0.936-0.937
			c0-0.624-0.364-1.04-0.936-1.04C26.87,31.608,26.402,32.024,26.402,32.648z"/>
		<path style="fill:#FFFFFF;" d="M30.198,4.932c0,0.468,0.468,0.936,1.04,0.936c0.624,0,0.988-0.468,0.988-0.936
			c0-0.624-0.364-1.04-0.988-1.04C30.666,3.892,30.198,4.308,30.198,4.932z"/>
		<path style="fill:#FFFFFF;" d="M30.771,31.816c0,0.572,0.468,1.04,1.04,1.04s0.936-0.468,0.936-1.04
			c0-0.624-0.363-0.936-0.936-0.936S30.771,31.192,30.771,31.816z"/>
		<path style="fill:#FFFFFF;" d="M33.891,6.908c0,0.572,0.363,0.988,0.936,0.988c0.624,0,1.04-0.416,1.04-0.988
			c0-0.624-0.416-1.04-1.04-1.04C34.254,5.868,33.891,6.284,33.891,6.908z"/>
		<path style="fill:#FFFFFF;" d="M34.463,29.633c0,0.572,0.468,1.04,1.039,1.04c0.625,0,0.988-0.468,0.988-1.04
			c0-0.624-0.363-0.937-0.988-0.937C34.931,28.696,34.463,29.009,34.463,29.633z"/>
		<path style="fill:#FFFFFF;" d="M36.698,9.976c0,0.468,0.468,0.988,1.04,0.988s0.988-0.52,0.988-0.988
			c0-0.624-0.416-0.988-0.988-0.988S36.698,9.352,36.698,9.976z"/>
		<path style="fill:#FFFFFF;" d="M37.271,26.513c0,0.468,0.521,0.936,0.988,0.936c0.624,0,0.987-0.468,0.987-0.936
			c0-0.624-0.363-1.04-0.987-1.04C37.791,25.473,37.271,25.889,37.271,26.513z"/>
		<path style="fill:#FFFFFF;" d="M38.467,13.876c0,0.572,0.416,0.988,0.988,0.988c0.623,0,0.987-0.416,0.987-0.988
			s-0.364-0.988-0.987-0.988C38.883,12.888,38.467,13.304,38.467,13.876z"/>
		<path style="fill:#FFFFFF;" d="M38.778,22.456c0,0.468,0.468,0.988,1.04,0.988s0.988-0.52,0.988-0.988
			c0-0.572-0.416-0.988-0.988-0.988S38.778,21.884,38.778,22.456z"/>
		<path style="fill:#FFFFFF;" d="M39.143,18.192c0,0.468,0.468,0.988,1.04,0.988s0.937-0.52,0.937-0.988
			c0-0.572-0.364-0.988-0.937-0.988S39.143,17.62,39.143,18.192z"/>
		<g>
			<ellipse style="fill:#FFFFFF;" cx="28.726" cy="18.759" rx="7.303" ry="11.065"/>
			<circle style="fill:#FFC659;" cx="28.726" cy="18.759" r="5.323"/>
			<circle style="fill:#6083FF;" cx="28.726" cy="18.759" r="1.994"/>
		</g>
		<g>
			<defs>
				<rect id="SVGID_3_" width="15" height="36"/>
			</defs>
			<clipPath id="SVGID_4_">
				<use xlink:href="#SVGID_3_"  style="overflow:visible;"/>
			</clipPath>
			<g style="clip-path:url(#SVGID_4_);">
				<path style="fill:#6083FF;" d="M37.111,19.833H2.889c-0.675,0-1.222-0.547-1.222-1.222v0c0-0.675,0.547-1.222,1.222-1.222
					h34.222c0.675,0,1.222,0.547,1.222,1.222v0C38.333,19.286,37.786,19.833,37.111,19.833z"/>
				<path style="fill:#6083FF;" d="M36.497,13.907L4.339,25.612c-0.634,0.231-1.336-0.096-1.567-0.73l0,0
					c-0.231-0.634,0.096-1.336,0.73-1.567L35.661,11.61c0.634-0.231,1.336,0.096,1.567,0.73v0
					C37.459,12.975,37.132,13.676,36.497,13.907z"/>
				<path style="fill:#6083FF;" d="M33.894,8.549L7.678,30.546c-0.517,0.434-1.288,0.366-1.722-0.151l0,0
					c-0.434-0.517-0.366-1.288,0.151-1.722L32.322,6.676c0.517-0.434,1.288-0.366,1.722,0.151v0
					C34.478,7.344,34.411,8.115,33.894,8.549z"/>
				<path style="fill:#6083FF;" d="M29.614,4.404L12.503,34.041c-0.338,0.585-1.085,0.785-1.67,0.447h0
					c-0.585-0.338-0.785-1.085-0.447-1.67L27.497,3.181c0.338-0.585,1.085-0.785,1.67-0.447l0,0
					C29.751,3.071,29.952,3.819,29.614,4.404z"/>
				<path style="fill:#6083FF;" d="M24.175,1.972l-5.943,33.702c-0.117,0.665-0.751,1.109-1.416,0.991h0
					c-0.665-0.117-1.109-0.751-0.991-1.416l5.943-33.702c0.117-0.665,0.751-1.109,1.416-0.991l0,0
					C23.848,0.674,24.292,1.307,24.175,1.972z"/>
				<path style="fill:#6083FF;" d="M18.232,1.548l5.943,33.702c0.117,0.665-0.327,1.299-0.991,1.416h0
					c-0.665,0.117-1.299-0.327-1.416-0.991L15.825,1.972c-0.117-0.665,0.327-1.299,0.991-1.416l0,0
					C17.481,0.439,18.115,0.883,18.232,1.548z"/>
				<path style="fill:#6083FF;" d="M12.503,3.181l17.111,29.637c0.338,0.585,0.137,1.332-0.447,1.67h0
					c-0.585,0.338-1.332,0.137-1.67-0.447L10.386,4.404c-0.338-0.585-0.137-1.332,0.447-1.67l0,0
					C11.418,2.396,12.165,2.597,12.503,3.181z"/>
				<path style="fill:#6083FF;" d="M7.678,6.676l26.216,21.998c0.517,0.434,0.585,1.205,0.151,1.722v0
					c-0.434,0.517-1.205,0.585-1.722,0.151L6.106,8.549C5.589,8.115,5.522,7.344,5.956,6.827l0,0C6.39,6.31,7.161,6.242,7.678,6.676
					z"/>
				<path style="fill:#6083FF;" d="M4.339,11.61l32.158,11.705c0.634,0.231,0.961,0.932,0.73,1.567v0
					c-0.231,0.634-0.932,0.961-1.567,0.73L3.503,13.907c-0.634-0.231-0.961-0.932-0.73-1.567l0,0
					C3.003,11.706,3.705,11.379,4.339,11.61z"/>
			</g>
		</g>
	</g>
</g>
<g>
</g>
<g>
</g>
<g>
</g>
<g>
</g>
<g>
</g>
<g>
</g>
<g>
</g>
<g>
</g>
<g>
</g>
<g>
</g>
<g>
</g>
<g>
</g>
<g>
</g>
<g>
</g>
<g>
</g>
</svg>
