<svg id="圖層_1" data-name="圖層 1" xmlns="http://www.w3.org/2000/svg" viewBox="0 0 27 30.78"><defs><style>.cls-1{fill:#ffb519;}.cls-2{fill:#ff0078;}.cls-3{fill:#464ae0;}</style></defs><rect class="cls-1" x="4" y="0.09" width="6" height="27.3"/><path class="cls-2" d="M10,7.39C6.69,7.39,4,4.08,4,0h6Z"/><path class="cls-3" d="M11.16,30.78H6a6,6,0,0,1-6-6H11.28A9.61,9.61,0,0,0,21,16,9.41,9.41,0,0,0,11.61,6H10A6,6,0,0,1,4,0h7.61A15.41,15.41,0,0,1,27,16.17C26.57,24.44,19.44,30.78,11.16,30.78Z"/><circle class="cls-2" cx="2" cy="2.39" r="1"/><circle class="cls-2" cx="2" cy="6.39" r="1"/><circle class="cls-2" cx="2" cy="10.39" r="1"/><circle class="cls-2" cx="2" cy="14.39" r="1"/><circle class="cls-2" cx="2" cy="18.39" r="1"/><circle class="cls-2" cx="2" cy="22.39" r="1"/><path class="cls-3" d="M23.22,15.58l-9.16-5.29a1,1,0,0,0-1.5.87V20a1,1,0,0,0,1.5.87Z"/></svg>