<svg id="圖層_1" data-name="圖層 1" xmlns="http://www.w3.org/2000/svg" viewBox="0 0 156.57 30.78"><defs><style>.cls-1{fill:#fff;}</style></defs><rect class="cls-1" x="4" y="0.09" width="6" height="27.3"/><path class="cls-1" d="M10,7.39C6.69,7.39,4,4.08,4,0h6Z"/><path class="cls-1" d="M11.16,30.78H6a6,6,0,0,1-6-6H11.28A9.61,9.61,0,0,0,21,16,9.41,9.41,0,0,0,11.61,6H10A6,6,0,0,1,4,0h7.61A15.41,15.41,0,0,1,27,16.17C26.57,24.44,19.44,30.78,11.16,30.78Z"/><circle class="cls-1" cx="2" cy="2.39" r="1"/><circle class="cls-1" cx="2" cy="6.39" r="1"/><circle class="cls-1" cx="2" cy="10.39" r="1"/><circle class="cls-1" cx="2" cy="14.39" r="1"/><circle class="cls-1" cx="2" cy="18.39" r="1"/><circle class="cls-1" cx="2" cy="22.39" r="1"/><path class="cls-1" d="M23.22,15.58l-9.16-5.29a1,1,0,0,0-1.5.87V20a1,1,0,0,0,1.5.87Z"/><path class="cls-1" d="M44.2,11.43A3.67,3.67,0,0,0,41,13a7,7,0,0,0-1.05,4v7.45h-4.8V7.21h4.8V9.48a8.11,8.11,0,0,1,2.32-1.79,6.3,6.3,0,0,1,2.83-.77l0,4.51Z"/><path class="cls-1" d="M62.76,24.42H58.24V22.34a5.63,5.63,0,0,1-4.59,2.34,6.86,6.86,0,0,1-4.59-1.58,5.29,5.29,0,0,1-1.86-4.23,4.47,4.47,0,0,1,1.92-4,9.23,9.23,0,0,1,5.25-1.31H58v-.1c0-1.83-1-2.75-2.91-2.75a7.92,7.92,0,0,0-2.64.5,8.66,8.66,0,0,0-2.35,1.23L47.91,9.38a12.84,12.84,0,0,1,7.74-2.46,8,8,0,0,1,5.12,1.57,5.94,5.94,0,0,1,2,5Zm-4.84-6.56V17h-3C53,17,52,17.63,52,18.82a1.66,1.66,0,0,0,.69,1.43,3.35,3.35,0,0,0,2,.49A3.53,3.53,0,0,0,57,20,2.55,2.55,0,0,0,57.92,17.86Z"/><path class="cls-1" d="M83,15.15v9.27H78.12V15a5.6,5.6,0,0,0-.63-3,2.22,2.22,0,0,0-2-1,3.47,3.47,0,0,0-2.47,1,4.08,4.08,0,0,0-1.07,3.06v9.27h-4.8V7.21h4.8v2a6,6,0,0,1,4.54-2.24,4.92,4.92,0,0,1,3,1,6.21,6.21,0,0,1,2,2.34,6.72,6.72,0,0,1,2.68-2.44,7.37,7.37,0,0,1,3.37-.86,6.71,6.71,0,0,1,4.9,1.81A7,7,0,0,1,94.24,14V24.42H89.41V15q0-4-2.91-4a3.47,3.47,0,0,0-2.5,1A4.11,4.11,0,0,0,83,15.15Z"/><path class="cls-1" d="M113.22,24.42h-4.51V22.34a5.66,5.66,0,0,1-4.6,2.34,6.86,6.86,0,0,1-4.59-1.58,5.28,5.28,0,0,1-1.85-4.23,4.47,4.47,0,0,1,1.92-4,9.21,9.21,0,0,1,5.24-1.31h3.59v-.1c0-1.83-1-2.75-2.91-2.75a7.83,7.83,0,0,0-2.64.5,8.59,8.59,0,0,0-2.36,1.23L98.37,9.38a12.84,12.84,0,0,1,7.74-2.46,8,8,0,0,1,5.12,1.57c1.33,1,2,2.7,2,5Zm-4.83-6.56V17h-3c-1.92,0-2.88.6-2.88,1.79a1.66,1.66,0,0,0,.69,1.43,3.3,3.3,0,0,0,2,.49,3.51,3.51,0,0,0,2.26-.78A2.55,2.55,0,0,0,108.39,17.86Z"/><path class="cls-1" d="M131.78,10.67v7.71a2.21,2.21,0,0,0,.51,1.55,1.61,1.61,0,0,0,1.22.56,2.78,2.78,0,0,0,2.27-1.22l1.79,3.36a6.91,6.91,0,0,1-4.72,2.05A5.73,5.73,0,0,1,127,18.6V10.67h-2V7.21h2V2.06h4.83V7.21h4.16v3.46Z"/><path class="cls-1" d="M144.77,24.42,138,7.18h5L147.23,18l4.29-10.85h5L149.7,24.42Z"/></svg>